<?xml version="1.0" encoding="UTF-8" standalone="no"?>
<!DOCTYPE svg PUBLIC "-//W3C//DTD SVG 1.1//EN"
 "http://www.w3.org/Graphics/SVG/1.1/DTD/svg11.dtd">
<!-- Generated by graphviz version 2.26.3 (20100126.1600)
 -->
<!-- Title: controllers_diagram Pages: 1 -->
<svg width="1152pt" height="1051pt"
 viewBox="0.00 0.00 1152.00 1051.00" xmlns="http://www.w3.org/2000/svg" xmlns:xlink="http://www.w3.org/1999/xlink">
<g id="graph1" class="graph" transform="scale(1 1) rotate(0) translate(4 1047)">
<title>controllers_diagram</title>
<polygon fill="white" stroke="white" points="-4,5 -4,-1047 1149,-1047 1149,5 -4,5"/>
<!-- ApplicationController -->
<g id="node2" class="node"><title>ApplicationController</title>
<polyline fill="none" stroke="black" points="109,-817.5 286,-817.5 "/>
<path fill="none" stroke="black" d="M286,-817.5C292,-817.5 298,-823.5 298,-829.5"/>
<polyline fill="none" stroke="black" points="298,-829.5 298,-1029.5 "/>
<path fill="none" stroke="black" d="M298,-1029.5C298,-1035.5 292,-1041.5 286,-1041.5"/>
<polyline fill="none" stroke="black" points="286,-1041.5 109,-1041.5 "/>
<path fill="none" stroke="black" d="M109,-1041.5C103,-1041.5 97,-1035.5 97,-1029.5"/>
<polyline fill="none" stroke="black" points="97,-1029.5 97,-829.5 "/>
<path fill="none" stroke="black" d="M97,-829.5C97,-823.5 103,-817.5 109,-817.5"/>
<text text-anchor="middle" x="197.5" y="-1024.9" font-family="Times,serif" font-size="14.00">ApplicationController</text>
<polyline fill="none" stroke="black" points="97,-1017.5 298,-1017.5 "/>
<text text-anchor="start" x="105" y="-984.9" font-family="Times,serif" font-size="14.00">authorized_user</text>
<text text-anchor="start" x="105" y="-968.9" font-family="Times,serif" font-size="14.00">check_team_presence</text>
<text text-anchor="start" x="105" y="-952.9" font-family="Times,serif" font-size="14.00">current_project</text>
<text text-anchor="start" x="105" y="-936.9" font-family="Times,serif" font-size="14.00">current_team</text>
<text text-anchor="start" x="105" y="-920.9" font-family="Times,serif" font-size="14.00">team_present?</text>
<polyline fill="none" stroke="black" points="97,-913.5 298,-913.5 "/>
<polyline fill="none" stroke="black" points="97,-889.5 298,-889.5 "/>
<text text-anchor="start" x="105" y="-840.9" font-family="Times,serif" font-size="14.00">get_team</text>
<text text-anchor="start" x="105" y="-824.9" font-family="Times,serif" font-size="14.00">has_privilege?</text>
</g>
<!-- AssignmentsController -->
<g id="node3" class="node"><title>AssignmentsController</title>
<polyline fill="none" stroke="black" points="877,-265.5 1060,-265.5 "/>
<path fill="none" stroke="black" d="M1060,-265.5C1066,-265.5 1072,-271.5 1072,-277.5"/>
<polyline fill="none" stroke="black" points="1072,-277.5 1072,-413.5 "/>
<path fill="none" stroke="black" d="M1072,-413.5C1072,-419.5 1066,-425.5 1060,-425.5"/>
<polyline fill="none" stroke="black" points="1060,-425.5 877,-425.5 "/>
<path fill="none" stroke="black" d="M877,-425.5C871,-425.5 865,-419.5 865,-413.5"/>
<polyline fill="none" stroke="black" points="865,-413.5 865,-277.5 "/>
<path fill="none" stroke="black" d="M865,-277.5C865,-271.5 871,-265.5 877,-265.5"/>
<text text-anchor="middle" x="968.5" y="-408.9" font-family="Times,serif" font-size="14.00">AssignmentsController</text>
<polyline fill="none" stroke="black" points="865,-401.5 1072,-401.5 "/>
<text text-anchor="start" x="873" y="-352.9" font-family="Times,serif" font-size="14.00">create</text>
<text text-anchor="start" x="873" y="-336.9" font-family="Times,serif" font-size="14.00">destroy</text>
<polyline fill="none" stroke="black" points="865,-329.5 1072,-329.5 "/>
<polyline fill="none" stroke="black" points="865,-305.5 1072,-305.5 "/>
</g>
<!-- CalendarController -->
<g id="node4" class="node"><title>CalendarController</title>
<polyline fill="none" stroke="black" points="949,-937.5 1048,-937.5 "/>
<path fill="none" stroke="black" d="M1048,-937.5C1054,-937.5 1060,-943.5 1060,-949.5"/>
<polyline fill="none" stroke="black" points="1060,-949.5 1060,-1021.5 "/>
<path fill="none" stroke="black" d="M1060,-1021.5C1060,-1027.5 1054,-1033.5 1048,-1033.5"/>
<polyline fill="none" stroke="black" points="1048,-1033.5 949,-1033.5 "/>
<path fill="none" stroke="black" d="M949,-1033.5C943,-1033.5 937,-1027.5 937,-1021.5"/>
<polyline fill="none" stroke="black" points="937,-1021.5 937,-949.5 "/>
<path fill="none" stroke="black" d="M937,-949.5C937,-943.5 943,-937.5 949,-937.5"/>
<text text-anchor="middle" x="998.5" y="-1016.9" font-family="Times,serif" font-size="14.00">CalendarController</text>
<polyline fill="none" stroke="black" points="937,-1009.5 1060,-1009.5 "/>
<text text-anchor="start" x="945" y="-992.9" font-family="Times,serif" font-size="14.00">index</text>
<polyline fill="none" stroke="black" points="937,-985.5 1060,-985.5 "/>
<polyline fill="none" stroke="black" points="937,-961.5 1060,-961.5 "/>
</g>
<!-- CommentsController -->
<g id="node5" class="node"><title>CommentsController</title>
<polyline fill="none" stroke="black" points="85,-193.5 268,-193.5 "/>
<path fill="none" stroke="black" d="M268,-193.5C274,-193.5 280,-199.5 280,-205.5"/>
<polyline fill="none" stroke="black" points="280,-205.5 280,-405.5 "/>
<path fill="none" stroke="black" d="M280,-405.5C280,-411.5 274,-417.5 268,-417.5"/>
<polyline fill="none" stroke="black" points="268,-417.5 85,-417.5 "/>
<path fill="none" stroke="black" d="M85,-417.5C79,-417.5 73,-411.5 73,-405.5"/>
<polyline fill="none" stroke="black" points="73,-405.5 73,-205.5 "/>
<path fill="none" stroke="black" d="M73,-205.5C73,-199.5 79,-193.5 85,-193.5"/>
<text text-anchor="middle" x="176.5" y="-400.9" font-family="Times,serif" font-size="14.00">CommentsController</text>
<polyline fill="none" stroke="black" points="73,-393.5 280,-393.5 "/>
<text text-anchor="start" x="81" y="-344.9" font-family="Times,serif" font-size="14.00">create</text>
<text text-anchor="start" x="81" y="-328.9" font-family="Times,serif" font-size="14.00">destroy</text>
<text text-anchor="start" x="81" y="-312.9" font-family="Times,serif" font-size="14.00">index</text>
<text text-anchor="start" x="81" y="-296.9" font-family="Times,serif" font-size="14.00">new</text>
<polyline fill="none" stroke="black" points="73,-289.5 280,-289.5 "/>
<polyline fill="none" stroke="black" points="73,-265.5 280,-265.5 "/>
<text text-anchor="start" x="81" y="-216.9" font-family="Times,serif" font-size="14.00">get_comment</text>
<text text-anchor="start" x="81" y="-200.9" font-family="Times,serif" font-size="14.00">get_task</text>
</g>
<!-- CompaniesController -->
<g id="node6" class="node"><title>CompaniesController</title>
<polyline fill="none" stroke="black" points="349,-289.5 532,-289.5 "/>
<path fill="none" stroke="black" d="M532,-289.5C538,-289.5 544,-295.5 544,-301.5"/>
<polyline fill="none" stroke="black" points="544,-301.5 544,-581.5 "/>
<path fill="none" stroke="black" d="M544,-581.5C544,-587.5 538,-593.5 532,-593.5"/>
<polyline fill="none" stroke="black" points="532,-593.5 349,-593.5 "/>
<path fill="none" stroke="black" d="M349,-593.5C343,-593.5 337,-587.5 337,-581.5"/>
<polyline fill="none" stroke="black" points="337,-581.5 337,-301.5 "/>
<path fill="none" stroke="black" d="M337,-301.5C337,-295.5 343,-289.5 349,-289.5"/>
<text text-anchor="middle" x="440.5" y="-576.9" font-family="Times,serif" font-size="14.00">CompaniesController</text>
<polyline fill="none" stroke="black" points="337,-569.5 544,-569.5 "/>
<text text-anchor="start" x="345" y="-488.9" font-family="Times,serif" font-size="14.00">create</text>
<text text-anchor="start" x="345" y="-472.9" font-family="Times,serif" font-size="14.00">destroy</text>
<text text-anchor="start" x="345" y="-456.9" font-family="Times,serif" font-size="14.00">edit</text>
<text text-anchor="start" x="345" y="-440.9" font-family="Times,serif" font-size="14.00">index</text>
<text text-anchor="start" x="345" y="-424.9" font-family="Times,serif" font-size="14.00">new</text>
<text text-anchor="start" x="345" y="-408.9" font-family="Times,serif" font-size="14.00">show</text>
<text text-anchor="start" x="345" y="-392.9" font-family="Times,serif" font-size="14.00">update</text>
<polyline fill="none" stroke="black" points="337,-385.5 544,-385.5 "/>
<polyline fill="none" stroke="black" points="337,-361.5 544,-361.5 "/>
<text text-anchor="start" x="345" y="-312.9" font-family="Times,serif" font-size="14.00">add_to_team</text>
<text text-anchor="start" x="345" y="-296.9" font-family="Times,serif" font-size="14.00">get_company</text>
</g>
<!-- EventsController -->
<g id="node7" class="node"><title>EventsController</title>
<polyline fill="none" stroke="black" points="685,-673.5 868,-673.5 "/>
<path fill="none" stroke="black" d="M868,-673.5C874,-673.5 880,-679.5 880,-685.5"/>
<polyline fill="none" stroke="black" points="880,-685.5 880,-949.5 "/>
<path fill="none" stroke="black" d="M880,-949.5C880,-955.5 874,-961.5 868,-961.5"/>
<polyline fill="none" stroke="black" points="868,-961.5 685,-961.5 "/>
<path fill="none" stroke="black" d="M685,-961.5C679,-961.5 673,-955.5 673,-949.5"/>
<polyline fill="none" stroke="black" points="673,-949.5 673,-685.5 "/>
<path fill="none" stroke="black" d="M673,-685.5C673,-679.5 679,-673.5 685,-673.5"/>
<text text-anchor="middle" x="776.5" y="-944.9" font-family="Times,serif" font-size="14.00">EventsController</text>
<polyline fill="none" stroke="black" points="673,-937.5 880,-937.5 "/>
<text text-anchor="start" x="681" y="-872.9" font-family="Times,serif" font-size="14.00">create</text>
<text text-anchor="start" x="681" y="-856.9" font-family="Times,serif" font-size="14.00">destroy</text>
<text text-anchor="start" x="681" y="-840.9" font-family="Times,serif" font-size="14.00">edit</text>
<text text-anchor="start" x="681" y="-824.9" font-family="Times,serif" font-size="14.00">index</text>
<text text-anchor="start" x="681" y="-808.9" font-family="Times,serif" font-size="14.00">new</text>
<text text-anchor="start" x="681" y="-792.9" font-family="Times,serif" font-size="14.00">show</text>
<text text-anchor="start" x="681" y="-776.9" font-family="Times,serif" font-size="14.00">update</text>
<polyline fill="none" stroke="black" points="673,-769.5 880,-769.5 "/>
<polyline fill="none" stroke="black" points="673,-745.5 880,-745.5 "/>
<text text-anchor="start" x="681" y="-696.9" font-family="Times,serif" font-size="14.00">get_event</text>
<text text-anchor="start" x="681" y="-680.9" font-family="Times,serif" font-size="14.00">get_team</text>
</g>
<!-- MembersController -->
<g id="node8" class="node"><title>MembersController</title>
<polyline fill="none" stroke="black" points="13,-1.5 196,-1.5 "/>
<path fill="none" stroke="black" d="M196,-1.5C202,-1.5 208,-7.5 208,-13.5"/>
<polyline fill="none" stroke="black" points="208,-13.5 208,-133.5 "/>
<path fill="none" stroke="black" d="M208,-133.5C208,-139.5 202,-145.5 196,-145.5"/>
<polyline fill="none" stroke="black" points="196,-145.5 13,-145.5 "/>
<path fill="none" stroke="black" d="M13,-145.5C7,-145.5 1,-139.5 1,-133.5"/>
<polyline fill="none" stroke="black" points="1,-133.5 1,-13.5 "/>
<path fill="none" stroke="black" d="M1,-13.5C1,-7.5 7,-1.5 13,-1.5"/>
<text text-anchor="middle" x="104.5" y="-128.9" font-family="Times,serif" font-size="14.00">MembersController</text>
<polyline fill="none" stroke="black" points="1,-121.5 208,-121.5 "/>
<text text-anchor="start" x="9" y="-88.9" font-family="Times,serif" font-size="14.00">create</text>
<text text-anchor="start" x="9" y="-72.9" font-family="Times,serif" font-size="14.00">destroy</text>
<polyline fill="none" stroke="black" points="1,-65.5 208,-65.5 "/>
<polyline fill="none" stroke="black" points="1,-41.5 208,-41.5 "/>
</g>
<!-- PostsController -->
<g id="node9" class="node"><title>PostsController</title>
<polyline fill="none" stroke="black" points="349,-73.5 532,-73.5 "/>
<path fill="none" stroke="black" d="M532,-73.5C538,-73.5 544,-79.5 544,-85.5"/>
<polyline fill="none" stroke="black" points="544,-85.5 544,-237.5 "/>
<path fill="none" stroke="black" d="M544,-237.5C544,-243.5 538,-249.5 532,-249.5"/>
<polyline fill="none" stroke="black" points="532,-249.5 349,-249.5 "/>
<path fill="none" stroke="black" d="M349,-249.5C343,-249.5 337,-243.5 337,-237.5"/>
<polyline fill="none" stroke="black" points="337,-237.5 337,-85.5 "/>
<path fill="none" stroke="black" d="M337,-85.5C337,-79.5 343,-73.5 349,-73.5"/>
<text text-anchor="middle" x="440.5" y="-232.9" font-family="Times,serif" font-size="14.00">PostsController</text>
<polyline fill="none" stroke="black" points="337,-225.5 544,-225.5 "/>
<text text-anchor="start" x="345" y="-176.9" font-family="Times,serif" font-size="14.00">create</text>
<text text-anchor="start" x="345" y="-160.9" font-family="Times,serif" font-size="14.00">destroy</text>
<polyline fill="none" stroke="black" points="337,-153.5 544,-153.5 "/>
<polyline fill="none" stroke="black" points="337,-129.5 544,-129.5 "/>
<text text-anchor="start" x="345" y="-80.9" font-family="Times,serif" font-size="14.00">authorized_user</text>
</g>
<!-- ProjectsController -->
<g id="node10" class="node"><title>ProjectsController</title>
<polyline fill="none" stroke="black" points="349,-649.5 532,-649.5 "/>
<path fill="none" stroke="black" d="M532,-649.5C538,-649.5 544,-655.5 544,-661.5"/>
<polyline fill="none" stroke="black" points="544,-661.5 544,-941.5 "/>
<path fill="none" stroke="black" d="M544,-941.5C544,-947.5 538,-953.5 532,-953.5"/>
<polyline fill="none" stroke="black" points="532,-953.5 349,-953.5 "/>
<path fill="none" stroke="black" d="M349,-953.5C343,-953.5 337,-947.5 337,-941.5"/>
<polyline fill="none" stroke="black" points="337,-941.5 337,-661.5 "/>
<path fill="none" stroke="black" d="M337,-661.5C337,-655.5 343,-649.5 349,-649.5"/>
<text text-anchor="middle" x="440.5" y="-936.9" font-family="Times,serif" font-size="14.00">ProjectsController</text>
<polyline fill="none" stroke="black" points="337,-929.5 544,-929.5 "/>
<text text-anchor="start" x="345" y="-848.9" font-family="Times,serif" font-size="14.00">create</text>
<text text-anchor="start" x="345" y="-832.9" font-family="Times,serif" font-size="14.00">destroy</text>
<text text-anchor="start" x="345" y="-816.9" font-family="Times,serif" font-size="14.00">edit</text>
<text text-anchor="start" x="345" y="-800.9" font-family="Times,serif" font-size="14.00">index</text>
<text text-anchor="start" x="345" y="-784.9" font-family="Times,serif" font-size="14.00">new</text>
<text text-anchor="start" x="345" y="-768.9" font-family="Times,serif" font-size="14.00">show</text>
<text text-anchor="start" x="345" y="-752.9" font-family="Times,serif" font-size="14.00">update</text>
<polyline fill="none" stroke="black" points="337,-745.5 544,-745.5 "/>
<polyline fill="none" stroke="black" points="337,-721.5 544,-721.5 "/>
<text text-anchor="start" x="345" y="-672.9" font-family="Times,serif" font-size="14.00">assign_to_team</text>
<text text-anchor="start" x="345" y="-656.9" font-family="Times,serif" font-size="14.00">get_project</text>
</g>
<!-- RelationshipsController -->
<g id="node11" class="node"><title>RelationshipsController</title>
<polyline fill="none" stroke="black" points="877,-481.5 1060,-481.5 "/>
<path fill="none" stroke="black" d="M1060,-481.5C1066,-481.5 1072,-487.5 1072,-493.5"/>
<polyline fill="none" stroke="black" points="1072,-493.5 1072,-613.5 "/>
<path fill="none" stroke="black" d="M1072,-613.5C1072,-619.5 1066,-625.5 1060,-625.5"/>
<polyline fill="none" stroke="black" points="1060,-625.5 877,-625.5 "/>
<path fill="none" stroke="black" d="M877,-625.5C871,-625.5 865,-619.5 865,-613.5"/>
<polyline fill="none" stroke="black" points="865,-613.5 865,-493.5 "/>
<path fill="none" stroke="black" d="M865,-493.5C865,-487.5 871,-481.5 877,-481.5"/>
<text text-anchor="middle" x="968.5" y="-608.9" font-family="Times,serif" font-size="14.00">RelationshipsController</text>
<polyline fill="none" stroke="black" points="865,-601.5 1072,-601.5 "/>
<text text-anchor="start" x="873" y="-568.9" font-family="Times,serif" font-size="14.00">create</text>
<text text-anchor="start" x="873" y="-552.9" font-family="Times,serif" font-size="14.00">destroy</text>
<polyline fill="none" stroke="black" points="865,-545.5 1072,-545.5 "/>
<polyline fill="none" stroke="black" points="865,-521.5 1072,-521.5 "/>
</g>
<!-- StaticsController -->
<g id="node12" class="node"><title>StaticsController</title>
<polyline fill="none" stroke="black" points="949,-793.5 1035,-793.5 "/>
<path fill="none" stroke="black" d="M1035,-793.5C1041,-793.5 1047,-799.5 1047,-805.5"/>
<polyline fill="none" stroke="black" points="1047,-805.5 1047,-877.5 "/>
<path fill="none" stroke="black" d="M1047,-877.5C1047,-883.5 1041,-889.5 1035,-889.5"/>
<polyline fill="none" stroke="black" points="1035,-889.5 949,-889.5 "/>
<path fill="none" stroke="black" d="M949,-889.5C943,-889.5 937,-883.5 937,-877.5"/>
<polyline fill="none" stroke="black" points="937,-877.5 937,-805.5 "/>
<path fill="none" stroke="black" d="M937,-805.5C937,-799.5 943,-793.5 949,-793.5"/>
<text text-anchor="middle" x="992" y="-872.9" font-family="Times,serif" font-size="14.00">StaticsController</text>
<polyline fill="none" stroke="black" points="937,-865.5 1047,-865.5 "/>
<text text-anchor="start" x="945" y="-848.9" font-family="Times,serif" font-size="14.00">index</text>
<polyline fill="none" stroke="black" points="937,-841.5 1047,-841.5 "/>
<polyline fill="none" stroke="black" points="937,-817.5 1047,-817.5 "/>
</g>
<!-- TasksController -->
<g id="node13" class="node"><title>TasksController</title>
<polyline fill="none" stroke="black" points="85,-457.5 268,-457.5 "/>
<path fill="none" stroke="black" d="M268,-457.5C274,-457.5 280,-463.5 280,-469.5"/>
<polyline fill="none" stroke="black" points="280,-469.5 280,-733.5 "/>
<path fill="none" stroke="black" d="M280,-733.5C280,-739.5 274,-745.5 268,-745.5"/>
<polyline fill="none" stroke="black" points="268,-745.5 85,-745.5 "/>
<path fill="none" stroke="black" d="M85,-745.5C79,-745.5 73,-739.5 73,-733.5"/>
<polyline fill="none" stroke="black" points="73,-733.5 73,-469.5 "/>
<path fill="none" stroke="black" d="M73,-469.5C73,-463.5 79,-457.5 85,-457.5"/>
<text text-anchor="middle" x="176.5" y="-728.9" font-family="Times,serif" font-size="14.00">TasksController</text>
<polyline fill="none" stroke="black" points="73,-721.5 280,-721.5 "/>
<text text-anchor="start" x="81" y="-656.9" font-family="Times,serif" font-size="14.00">create</text>
<text text-anchor="start" x="81" y="-640.9" font-family="Times,serif" font-size="14.00">destroy</text>
<text text-anchor="start" x="81" y="-624.9" font-family="Times,serif" font-size="14.00">edit</text>
<text text-anchor="start" x="81" y="-608.9" font-family="Times,serif" font-size="14.00">index</text>
<text text-anchor="start" x="81" y="-592.9" font-family="Times,serif" font-size="14.00">new</text>
<text text-anchor="start" x="81" y="-576.9" font-family="Times,serif" font-size="14.00">show</text>
<text text-anchor="start" x="81" y="-560.9" font-family="Times,serif" font-size="14.00">update</text>
<polyline fill="none" stroke="black" points="73,-553.5 280,-553.5 "/>
<polyline fill="none" stroke="black" points="73,-529.5 280,-529.5 "/>
<text text-anchor="start" x="81" y="-480.9" font-family="Times,serif" font-size="14.00">get_project</text>
<text text-anchor="start" x="81" y="-464.9" font-family="Times,serif" font-size="14.00">get_task</text>
</g>
<!-- TeamsController -->
<g id="node14" class="node"><title>TeamsController</title>
<polyline fill="none" stroke="black" points="613,-313.5 796,-313.5 "/>
<path fill="none" stroke="black" d="M796,-313.5C802,-313.5 808,-319.5 808,-325.5"/>
<polyline fill="none" stroke="black" points="808,-325.5 808,-605.5 "/>
<path fill="none" stroke="black" d="M808,-605.5C808,-611.5 802,-617.5 796,-617.5"/>
<polyline fill="none" stroke="black" points="796,-617.5 613,-617.5 "/>
<path fill="none" stroke="black" d="M613,-617.5C607,-617.5 601,-611.5 601,-605.5"/>
<polyline fill="none" stroke="black" points="601,-605.5 601,-325.5 "/>
<path fill="none" stroke="black" d="M601,-325.5C601,-319.5 607,-313.5 613,-313.5"/>
<text text-anchor="middle" x="704.5" y="-600.9" font-family="Times,serif" font-size="14.00">TeamsController</text>
<polyline fill="none" stroke="black" points="601,-593.5 808,-593.5 "/>
<text text-anchor="start" x="609" y="-512.9" font-family="Times,serif" font-size="14.00">create</text>
<text text-anchor="start" x="609" y="-496.9" font-family="Times,serif" font-size="14.00">destroy</text>
<text text-anchor="start" x="609" y="-480.9" font-family="Times,serif" font-size="14.00">edit</text>
<text text-anchor="start" x="609" y="-464.9" font-family="Times,serif" font-size="14.00">index</text>
<text text-anchor="start" x="609" y="-448.9" font-family="Times,serif" font-size="14.00">new</text>
<text text-anchor="start" x="609" y="-432.9" font-family="Times,serif" font-size="14.00">show</text>
<text text-anchor="start" x="609" y="-416.9" font-family="Times,serif" font-size="14.00">update</text>
<polyline fill="none" stroke="black" points="601,-409.5 808,-409.5 "/>
<polyline fill="none" stroke="black" points="601,-385.5 808,-385.5 "/>
<text text-anchor="start" x="609" y="-336.9" font-family="Times,serif" font-size="14.00">add_members</text>
<text text-anchor="start" x="609" y="-320.9" font-family="Times,serif" font-size="14.00">get_post</text>
</g>
<!-- UsersController -->
<g id="node15" class="node"><title>UsersController</title>
<polyline fill="none" stroke="black" points="613,-73.5 796,-73.5 "/>
<path fill="none" stroke="black" d="M796,-73.5C802,-73.5 808,-79.5 808,-85.5"/>
<polyline fill="none" stroke="black" points="808,-85.5 808,-253.5 "/>
<path fill="none" stroke="black" d="M808,-253.5C808,-259.5 802,-265.5 796,-265.5"/>
<polyline fill="none" stroke="black" points="796,-265.5 613,-265.5 "/>
<path fill="none" stroke="black" d="M613,-265.5C607,-265.5 601,-259.5 601,-253.5"/>
<polyline fill="none" stroke="black" points="601,-253.5 601,-85.5 "/>
<path fill="none" stroke="black" d="M601,-85.5C601,-79.5 607,-73.5 613,-73.5"/>
<text text-anchor="middle" x="704.5" y="-248.9" font-family="Times,serif" font-size="14.00">UsersController</text>
<polyline fill="none" stroke="black" points="601,-241.5 808,-241.5 "/>
<text text-anchor="start" x="609" y="-208.9" font-family="Times,serif" font-size="14.00">followers</text>
<text text-anchor="start" x="609" y="-192.9" font-family="Times,serif" font-size="14.00">following</text>
<text text-anchor="start" x="609" y="-176.9" font-family="Times,serif" font-size="14.00">index</text>
<text text-anchor="start" x="609" y="-160.9" font-family="Times,serif" font-size="14.00">my_teams</text>
<text text-anchor="start" x="609" y="-144.9" font-family="Times,serif" font-size="14.00">show</text>
<polyline fill="none" stroke="black" points="601,-137.5 808,-137.5 "/>
<polyline fill="none" stroke="black" points="601,-113.5 808,-113.5 "/>
</g>
<!-- WorkersController -->
<g id="node16" class="node"><title>WorkersController</title>
<polyline fill="none" stroke="black" points="877,-49.5 1060,-49.5 "/>
<path fill="none" stroke="black" d="M1060,-49.5C1066,-49.5 1072,-55.5 1072,-61.5"/>
<polyline fill="none" stroke="black" points="1072,-61.5 1072,-197.5 "/>
<path fill="none" stroke="black" d="M1072,-197.5C1072,-203.5 1066,-209.5 1060,-209.5"/>
<polyline fill="none" stroke="black" points="1060,-209.5 877,-209.5 "/>
<path fill="none" stroke="black" d="M877,-209.5C871,-209.5 865,-203.5 865,-197.5"/>
<polyline fill="none" stroke="black" points="865,-197.5 865,-61.5 "/>
<path fill="none" stroke="black" d="M865,-61.5C865,-55.5 871,-49.5 877,-49.5"/>
<text text-anchor="middle" x="968.5" y="-192.9" font-family="Times,serif" font-size="14.00">WorkersController</text>
<polyline fill="none" stroke="black" points="865,-185.5 1072,-185.5 "/>
<text text-anchor="start" x="873" y="-136.9" font-family="Times,serif" font-size="14.00">create</text>
<text text-anchor="start" x="873" y="-120.9" font-family="Times,serif" font-size="14.00">destroy</text>
<polyline fill="none" stroke="black" points="865,-113.5 1072,-113.5 "/>
<polyline fill="none" stroke="black" points="865,-89.5 1072,-89.5 "/>
</g>
</g>
</svg>
