<?xml version="1.0" encoding="UTF-8" standalone="no"?>
<!DOCTYPE svg PUBLIC "-//W3C//DTD SVG 1.1//EN"
 "http://www.w3.org/Graphics/SVG/1.1/DTD/svg11.dtd">
<!-- Generated by graphviz version 2.26.3 (20100126.1600)
 -->
<!-- Title: models_diagram Pages: 1 -->
<svg width="763pt" height="328pt"
 viewBox="0.00 0.00 763.00 328.00" xmlns="http://www.w3.org/2000/svg" xmlns:xlink="http://www.w3.org/1999/xlink">
<g id="graph1" class="graph" transform="scale(1 1) rotate(0) translate(4 324)">
<title>models_diagram</title>
<polygon fill="white" stroke="white" points="-4,5 -4,-324 760,-324 760,5 -4,5"/>
<!-- _diagram_info -->
<g id="node1" class="node"><title>_diagram_info</title>
<text text-anchor="start" x="8" y="-303.8" font-family="Times,serif" font-size="13.00">Models diagram</text>
<text text-anchor="start" x="8" y="-288.8" font-family="Times,serif" font-size="13.00">Date: Jun 25 2011 &#45; 17:45</text>
<text text-anchor="start" x="8" y="-273.8" font-family="Times,serif" font-size="13.00">Migration version: 20110625064854</text>
<text text-anchor="start" x="8" y="-258.8" font-family="Times,serif" font-size="13.00">Generated by RailRoady 1.0.2</text>
<text text-anchor="start" x="8" y="-243.8" font-family="Times,serif" font-size="13.00">http://railroady.prestonlee.com</text>
</g>
<!-- Assignment -->
<g id="node2" class="node"><title>Assignment</title>
<ellipse fill="none" stroke="black" cx="261" cy="-106" rx="55.8503" ry="18"/>
<text text-anchor="middle" x="261" y="-101.4" font-family="Times,serif" font-size="14.00">Assignment</text>
</g>
<!-- Comment -->
<g id="node3" class="node"><title>Comment</title>
<ellipse fill="none" stroke="black" cx="139" cy="-106" rx="47.8011" ry="18"/>
<text text-anchor="middle" x="139" y="-101.4" font-family="Times,serif" font-size="14.00">Comment</text>
</g>
<!-- Company -->
<g id="node4" class="node"><title>Company</title>
<ellipse fill="none" stroke="black" cx="462" cy="-278" rx="47.1269" ry="18"/>
<text text-anchor="middle" x="462" y="-273.4" font-family="Times,serif" font-size="14.00">Company</text>
</g>
<!-- Team -->
<g id="node11" class="node"><title>Team</title>
<ellipse fill="none" stroke="black" cx="406" cy="-180" rx="32.8702" ry="18"/>
<text text-anchor="middle" x="406" y="-175.4" font-family="Times,serif" font-size="14.00">Team</text>
</g>
<!-- Company&#45;&gt;Team -->
<g id="edge4" class="edge"><title>Company&#45;&gt;Team</title>
<path fill="none" stroke="black" d="M446.582,-251.018C438.601,-237.052 428.899,-220.074 420.983,-206.22"/>
<polygon fill="black" stroke="black" points="446.767,-251.343 447.822,-262.258 449.248,-255.684 451.729,-260.025 451.729,-260.025 451.729,-260.025 449.248,-255.684 455.636,-257.793 446.767,-251.343 446.767,-251.343"/>
<polygon fill="black" stroke="black" points="420.792,-205.886 419.738,-194.971 418.311,-201.545 415.831,-197.203 415.831,-197.203 415.831,-197.203 418.311,-201.545 411.923,-199.436 420.792,-205.886 420.792,-205.886"/>
</g>
<!-- Worker -->
<g id="node13" class="node"><title>Worker</title>
<ellipse fill="none" stroke="black" cx="715" cy="-106" rx="40.2492" ry="18"/>
<text text-anchor="middle" x="715" y="-101.4" font-family="Times,serif" font-size="14.00">Worker</text>
</g>
<!-- Company&#45;&gt;Worker -->
<g id="edge2" class="edge"><title>Company&#45;&gt;Worker</title>
<path fill="none" stroke="black" d="M492.261,-257.427C540.767,-224.451 635.414,-160.106 684.236,-126.915"/>
<ellipse fill="none" stroke="black" cx="488.656" cy="-259.878" rx="4.00002" ry="4.00002"/>
<polygon fill="black" stroke="black" points="684.527,-126.717 695.327,-124.816 688.662,-123.905 692.797,-121.094 692.797,-121.094 692.797,-121.094 688.662,-123.905 690.267,-117.373 684.527,-126.717 684.527,-126.717"/>
</g>
<!-- Event -->
<g id="node5" class="node"><title>Event</title>
<ellipse fill="none" stroke="black" cx="406" cy="-106" rx="32.8702" ry="18"/>
<text text-anchor="middle" x="406" y="-101.4" font-family="Times,serif" font-size="14.00">Event</text>
</g>
<!-- Member -->
<g id="node6" class="node"><title>Member</title>
<ellipse fill="none" stroke="black" cx="355" cy="-18" rx="42.9325" ry="18"/>
<text text-anchor="middle" x="355" y="-13.4" font-family="Times,serif" font-size="14.00">Member</text>
</g>
<!-- Post -->
<g id="node7" class="node"><title>Post</title>
<ellipse fill="none" stroke="black" cx="453" cy="-18" rx="27.0036" ry="18"/>
<text text-anchor="middle" x="453" y="-13.4" font-family="Times,serif" font-size="14.00">Post</text>
</g>
<!-- Project -->
<g id="node8" class="node"><title>Project</title>
<ellipse fill="none" stroke="black" cx="261" cy="-278" rx="37.0651" ry="18"/>
<text text-anchor="middle" x="261" y="-273.4" font-family="Times,serif" font-size="14.00">Project</text>
</g>
<!-- Project&#45;&gt;Assignment -->
<g id="edge8" class="edge"><title>Project&#45;&gt;Assignment</title>
<path fill="none" stroke="black" d="M261,-251.539C261,-219.799 261,-166.813 261,-134.285"/>
<ellipse fill="none" stroke="black" cx="261" cy="-255.918" rx="4" ry="4"/>
<polygon fill="black" stroke="black" points="261,-134.098 265.5,-124.098 261,-129.098 261,-124.098 261,-124.098 261,-124.098 261,-129.098 256.5,-124.098 261,-134.098 261,-134.098"/>
</g>
<!-- Task -->
<g id="node10" class="node"><title>Task</title>
<ellipse fill="none" stroke="black" cx="171" cy="-180" rx="30.1869" ry="18"/>
<text text-anchor="middle" x="171" y="-175.4" font-family="Times,serif" font-size="14.00">Task</text>
</g>
<!-- Project&#45;&gt;Task -->
<g id="edge6" class="edge"><title>Project&#45;&gt;Task</title>
<path fill="none" stroke="black" d="M239.906,-255.031C225.734,-239.599 207.104,-219.314 192.79,-203.726"/>
<ellipse fill="none" stroke="black" cx="243.027" cy="-258.43" rx="4.00002" ry="4.00002"/>
<polygon fill="black" stroke="black" points="192.508,-203.419 189.058,-193.01 189.126,-199.737 185.744,-196.054 185.744,-196.054 185.744,-196.054 189.126,-199.737 182.429,-199.098 192.508,-203.419 192.508,-203.419"/>
</g>
<!-- Project&#45;&gt;Team -->
<g id="edge10" class="edge"><title>Project&#45;&gt;Team</title>
<path fill="none" stroke="black" d="M291.338,-257.495C316.473,-240.508 351.969,-216.518 376.787,-199.744"/>
<polygon fill="black" stroke="black" points="290.993,-257.729 280.188,-259.6 286.851,-260.529 282.708,-263.328 282.708,-263.328 282.708,-263.328 286.851,-260.529 285.228,-267.057 290.993,-257.729 290.993,-257.729"/>
<polygon fill="black" stroke="black" points="376.801,-199.734 387.606,-197.863 380.944,-196.935 385.086,-194.135 385.086,-194.135 385.086,-194.135 380.944,-196.935 382.566,-190.406 376.801,-199.734 376.801,-199.734"/>
</g>
<!-- Relationship -->
<g id="node9" class="node"><title>Relationship</title>
<ellipse fill="none" stroke="black" cx="589" cy="-18" rx="57.1889" ry="18"/>
<text text-anchor="middle" x="589" y="-13.4" font-family="Times,serif" font-size="14.00">Relationship</text>
</g>
<!-- Task&#45;&gt;Comment -->
<g id="edge12" class="edge"><title>Task&#45;&gt;Comment</title>
<path fill="none" stroke="black" d="M160.187,-154.995C157.157,-147.988 153.849,-140.339 150.767,-133.211"/>
<ellipse fill="none" stroke="black" cx="161.829" cy="-158.792" rx="4.00002" ry="4.00002"/>
<polygon fill="black" stroke="black" points="150.721,-133.104 150.882,-122.139 148.736,-128.514 146.751,-123.925 146.751,-123.925 146.751,-123.925 148.736,-128.514 142.621,-125.711 150.721,-133.104 150.721,-133.104"/>
</g>
<!-- Team&#45;&gt;Assignment -->
<g id="edge20" class="edge"><title>Team&#45;&gt;Assignment</title>
<path fill="none" stroke="black" d="M373.34,-164.757C360.121,-158.475 344.761,-151.032 331,-144 320.238,-138.5 308.666,-132.327 298.091,-126.581"/>
<ellipse fill="none" stroke="black" cx="377.231" cy="-166.598" rx="4.00002" ry="4.00002"/>
<polygon fill="black" stroke="black" points="297.875,-126.463 291.257,-117.719 293.487,-124.066 289.099,-121.669 289.099,-121.669 289.099,-121.669 293.487,-124.066 286.942,-125.618 297.875,-126.463 297.875,-126.463"/>
</g>
<!-- Team&#45;&gt;Event -->
<g id="edge14" class="edge"><title>Team&#45;&gt;Event</title>
<path fill="none" stroke="black" d="M406,-153.487C406,-147.239 406,-140.556 406,-134.236"/>
<ellipse fill="none" stroke="black" cx="406" cy="-157.708" rx="4" ry="4"/>
<polygon fill="black" stroke="black" points="406,-134.082 410.5,-124.082 406,-129.082 406,-124.082 406,-124.082 406,-124.082 406,-129.082 401.5,-124.082 406,-134.082 406,-134.082"/>
</g>
<!-- Team&#45;&gt;Member -->
<g id="edge16" class="edge"><title>Team&#45;&gt;Member</title>
<path fill="none" stroke="black" d="M384.64,-157.587C376.766,-147.983 368.641,-136.179 364,-124 354.491,-99.049 352.852,-68.4728 353.227,-46.5826"/>
<ellipse fill="none" stroke="black" cx="387.406" cy="-160.823" rx="4.00002" ry="4.00002"/>
<polygon fill="black" stroke="black" points="353.236,-46.2952 358.058,-36.4466 353.398,-41.2978 353.561,-36.3004 353.561,-36.3004 353.561,-36.3004 353.398,-41.2978 349.063,-36.1543 353.236,-46.2952 353.236,-46.2952"/>
</g>
<!-- User -->
<g id="node12" class="node"><title>User</title>
<ellipse fill="none" stroke="black" cx="486" cy="-106" rx="28.8453" ry="18"/>
<text text-anchor="middle" x="486" y="-101.4" font-family="Times,serif" font-size="14.00">User</text>
</g>
<!-- Team&#45;&gt;User -->
<g id="edge18" class="edge"><title>Team&#45;&gt;User</title>
<path fill="none" stroke="black" d="M430.493,-157.344C440.507,-148.081 452.056,-137.398 462.017,-128.184"/>
<polygon fill="black" stroke="black" points="430.307,-157.516 419.91,-161.003 426.636,-160.911 422.966,-164.307 422.966,-164.307 422.966,-164.307 426.636,-160.911 426.022,-167.61 430.307,-157.516 430.307,-157.516"/>
<polygon fill="black" stroke="black" points="462.265,-127.955 472.661,-124.468 465.935,-124.56 469.606,-121.165 469.606,-121.165 469.606,-121.165 465.935,-124.56 466.55,-117.861 462.265,-127.955 462.265,-127.955"/>
</g>
<!-- Team&#45;&gt;Worker -->
<g id="edge22" class="edge"><title>Team&#45;&gt;Worker</title>
<path fill="none" stroke="black" d="M445.763,-173.225C497.142,-164.065 589.121,-146.281 666,-124 668.951,-123.145 671.981,-122.2 675.015,-121.205"/>
<ellipse fill="none" stroke="black" cx="441.508" cy="-173.978" rx="4.00001" ry="4.00001"/>
<polygon fill="black" stroke="black" points="675.179,-121.149 686.098,-122.158 679.908,-119.525 684.637,-117.902 684.637,-117.902 684.637,-117.902 679.908,-119.525 683.176,-113.646 675.179,-121.149 675.179,-121.149"/>
</g>
<!-- User&#45;&gt;Member -->
<g id="edge24" class="edge"><title>User&#45;&gt;Member</title>
<path fill="none" stroke="black" d="M459.379,-88.1172C438.328,-73.9758 408.879,-54.1936 386.627,-39.2455"/>
<ellipse fill="none" stroke="black" cx="462.784" cy="-90.4042" rx="4.00002" ry="4.00002"/>
<polygon fill="black" stroke="black" points="386.483,-39.149 380.691,-29.8373 382.333,-36.3608 378.182,-33.5727 378.182,-33.5727 378.182,-33.5727 382.333,-36.3608 375.673,-37.3082 386.483,-39.149 386.483,-39.149"/>
</g>
<!-- User&#45;&gt;Post -->
<g id="edge26" class="edge"><title>User&#45;&gt;Post</title>
<path fill="none" stroke="black" d="M472.222,-81.6513C470.325,-77.8172 468.512,-73.848 467,-70 464.005,-62.3763 461.421,-53.8805 459.316,-46.0024"/>
<ellipse fill="none" stroke="black" cx="474.079" cy="-85.2385" rx="4.00002" ry="4.00002"/>
<polygon fill="black" stroke="black" points="459.271,-45.8249 461.196,-35.0293 458.052,-40.976 456.832,-36.127 456.832,-36.127 456.832,-36.127 458.052,-40.976 452.468,-37.2248 459.271,-45.8249 459.271,-45.8249"/>
</g>
<!-- User&#45;&gt;Relationship -->
<g id="edge28" class="edge"><title>User&#45;&gt;Relationship</title>
<path fill="none" stroke="black" d="M522.147,-100.304C554.537,-94.3749 598.515,-83.9939 609,-70 614.682,-62.4165 613.086,-53.0218 608.951,-44.3127"/>
<ellipse fill="none" stroke="black" cx="518.128" cy="-101.017" rx="4.00001" ry="4.00001"/>
<polygon fill="black" stroke="black" points="608.916,-44.2525 607.818,-33.3417 606.418,-39.9212 603.92,-35.5898 603.92,-35.5898 603.92,-35.5898 606.418,-39.9212 600.022,-37.8379 608.916,-44.2525 608.916,-44.2525"/>
</g>
<!-- User&#45;&gt;Relationship -->
<g id="edge32" class="edge"><title>User&#45;&gt;Relationship</title>
<path fill="none" stroke="black" d="M478.184,-80.0772C477.025,-71.0964 477.677,-61.4289 483,-54 489.36,-45.1234 510.56,-37.1032 532.347,-30.8979"/>
<ellipse fill="none" stroke="black" cx="478.941" cy="-84.1163" rx="4.00001" ry="4.00001"/>
<polygon fill="black" stroke="black" points="532.363,-30.8936 543.194,-32.6072 537.187,-29.5795 542.012,-28.2654 542.012,-28.2654 542.012,-28.2654 537.187,-29.5795 540.829,-23.9236 532.363,-30.8936 532.363,-30.8936"/>
<text text-anchor="middle" x="544" y="-57.4" font-family="Times,serif" font-size="14.00">inverted_relationships</text>
</g>
<!-- User&#45;&gt;User -->
<g id="edge30" class="edge"><title>User&#45;&gt;User</title>
<path fill="none" stroke="black" d="M525.034,-108.925C529.844,-108.403 533,-107.428 533,-106 533,-104.572 529.844,-103.597 525.034,-103.075"/>
<polygon fill="black" stroke="black" points="524.905,-108.93 514.715,-104.879 519.91,-109.152 514.915,-109.374 514.915,-109.374 514.915,-109.374 519.91,-109.152 515.114,-113.87 524.905,-108.93 524.905,-108.93"/>
<polygon fill="black" stroke="black" points="524.905,-103.07 515.114,-98.1303 519.91,-102.848 514.915,-102.626 514.915,-102.626 514.915,-102.626 519.91,-102.848 514.715,-107.121 524.905,-103.07 524.905,-103.07"/>
<text text-anchor="middle" x="559.5" y="-101.4" font-family="Times,serif" font-size="14.00">following</text>
</g>
<!-- User&#45;&gt;User -->
<g id="edge34" class="edge"><title>User&#45;&gt;User</title>
<path fill="none" stroke="black" d="M519.209,-119.285C549.313,-124.458 586,-120.029 586,-106 586,-91.9707 549.313,-87.5424 519.209,-92.7152"/>
<polygon fill="black" stroke="black" points="519.092,-119.26 510.258,-112.763 514.203,-118.211 509.314,-117.162 509.314,-117.162 509.314,-117.162 514.203,-118.211 508.37,-121.562 519.092,-119.26 519.092,-119.26"/>
<polygon fill="black" stroke="black" points="519.092,-92.7402 508.37,-90.4376 514.203,-93.7889 509.314,-94.8375 509.314,-94.8375 509.314,-94.8375 514.203,-93.7889 510.258,-99.2375 519.092,-92.7402 519.092,-92.7402"/>
<text text-anchor="middle" x="612.5" y="-101.4" font-family="Times,serif" font-size="14.00">followers</text>
</g>
</g>
</svg>
