<?xml version="1.0" encoding="UTF-8" standalone="no"?>
<!DOCTYPE svg PUBLIC "-//W3C//DTD SVG 1.1//EN"
 "http://www.w3.org/Graphics/SVG/1.1/DTD/svg11.dtd">
<!-- Generated by graphviz version 2.26.3 (20100126.1600)
 -->
<!-- Title: models_diagram Pages: 1 -->
<svg width="1066pt" height="960pt"
 viewBox="0.00 0.00 1066.00 960.00" xmlns="http://www.w3.org/2000/svg" xmlns:xlink="http://www.w3.org/1999/xlink">
<g id="graph1" class="graph" transform="scale(1 1) rotate(0) translate(4 956)">
<title>models_diagram</title>
<polygon fill="white" stroke="white" points="-4,5 -4,-956 1063,-956 1063,5 -4,5"/>
<!-- _diagram_info -->
<g id="node1" class="node"><title>_diagram_info</title>
<text text-anchor="start" x="8" y="-880.8" font-family="Times,serif" font-size="13.00">Models diagram</text>
<text text-anchor="start" x="8" y="-865.8" font-family="Times,serif" font-size="13.00">Date: Jun 25 2011 &#45; 17:45</text>
<text text-anchor="start" x="8" y="-850.8" font-family="Times,serif" font-size="13.00">Migration version: 20110625064854</text>
<text text-anchor="start" x="8" y="-835.8" font-family="Times,serif" font-size="13.00">Generated by RailRoady 1.0.2</text>
<text text-anchor="start" x="8" y="-820.8" font-family="Times,serif" font-size="13.00">http://railroady.prestonlee.com</text>
</g>
<!-- Assignment -->
<g id="node2" class="node"><title>Assignment</title>
<polyline fill="none" stroke="black" points="235.5,-271 344.5,-271 "/>
<path fill="none" stroke="black" d="M344.5,-271C350.5,-271 356.5,-277 356.5,-283"/>
<polyline fill="none" stroke="black" points="356.5,-283 356.5,-355 "/>
<path fill="none" stroke="black" d="M356.5,-355C356.5,-361 350.5,-367 344.5,-367"/>
<polyline fill="none" stroke="black" points="344.5,-367 235.5,-367 "/>
<path fill="none" stroke="black" d="M235.5,-367C229.5,-367 223.5,-361 223.5,-355"/>
<polyline fill="none" stroke="black" points="223.5,-355 223.5,-283 "/>
<path fill="none" stroke="black" d="M223.5,-283C223.5,-277 229.5,-271 235.5,-271"/>
<text text-anchor="middle" x="290" y="-350.4" font-family="Times,serif" font-size="14.00">Assignment</text>
<polyline fill="none" stroke="black" points="223.5,-343 356.5,-343 "/>
<text text-anchor="start" x="231.5" y="-326.4" font-family="Times,serif" font-size="14.00">assigned :boolean</text>
<text text-anchor="start" x="231.5" y="-310.4" font-family="Times,serif" font-size="14.00">assigned_by :string</text>
<text text-anchor="start" x="231.5" y="-294.4" font-family="Times,serif" font-size="14.00">created_at :datetime</text>
<text text-anchor="start" x="231.5" y="-278.4" font-family="Times,serif" font-size="14.00">updated_at :datetime</text>
</g>
<!-- Comment -->
<g id="node3" class="node"><title>Comment</title>
<polyline fill="none" stroke="black" points="85.5,-271 194.5,-271 "/>
<path fill="none" stroke="black" d="M194.5,-271C200.5,-271 206.5,-277 206.5,-283"/>
<polyline fill="none" stroke="black" points="206.5,-283 206.5,-355 "/>
<path fill="none" stroke="black" d="M206.5,-355C206.5,-361 200.5,-367 194.5,-367"/>
<polyline fill="none" stroke="black" points="194.5,-367 85.5,-367 "/>
<path fill="none" stroke="black" d="M85.5,-367C79.5,-367 73.5,-361 73.5,-355"/>
<polyline fill="none" stroke="black" points="73.5,-355 73.5,-283 "/>
<path fill="none" stroke="black" d="M73.5,-283C73.5,-277 79.5,-271 85.5,-271"/>
<text text-anchor="middle" x="140" y="-350.4" font-family="Times,serif" font-size="14.00">Comment</text>
<polyline fill="none" stroke="black" points="73.5,-343 206.5,-343 "/>
<text text-anchor="start" x="81.5" y="-326.4" font-family="Times,serif" font-size="14.00">name :string</text>
<text text-anchor="start" x="81.5" y="-310.4" font-family="Times,serif" font-size="14.00">description :text</text>
<text text-anchor="start" x="81.5" y="-294.4" font-family="Times,serif" font-size="14.00">created_at :datetime</text>
<text text-anchor="start" x="81.5" y="-278.4" font-family="Times,serif" font-size="14.00">updated_at :datetime</text>
</g>
<!-- Company -->
<g id="node4" class="node"><title>Company</title>
<polyline fill="none" stroke="black" points="510.5,-759 657.5,-759 "/>
<path fill="none" stroke="black" d="M657.5,-759C663.5,-759 669.5,-765 669.5,-771"/>
<polyline fill="none" stroke="black" points="669.5,-771 669.5,-939 "/>
<path fill="none" stroke="black" d="M669.5,-939C669.5,-945 663.5,-951 657.5,-951"/>
<polyline fill="none" stroke="black" points="657.5,-951 510.5,-951 "/>
<path fill="none" stroke="black" d="M510.5,-951C504.5,-951 498.5,-945 498.5,-939"/>
<polyline fill="none" stroke="black" points="498.5,-939 498.5,-771 "/>
<path fill="none" stroke="black" d="M498.5,-771C498.5,-765 504.5,-759 510.5,-759"/>
<text text-anchor="middle" x="584" y="-934.4" font-family="Times,serif" font-size="14.00">Company</text>
<polyline fill="none" stroke="black" points="498.5,-927 669.5,-927 "/>
<text text-anchor="start" x="506.5" y="-910.4" font-family="Times,serif" font-size="14.00">name :string</text>
<text text-anchor="start" x="506.5" y="-894.4" font-family="Times,serif" font-size="14.00">telephone :string</text>
<text text-anchor="start" x="506.5" y="-878.4" font-family="Times,serif" font-size="14.00">fax :string</text>
<text text-anchor="start" x="506.5" y="-862.4" font-family="Times,serif" font-size="14.00">email :string</text>
<text text-anchor="start" x="506.5" y="-846.4" font-family="Times,serif" font-size="14.00">country :integer</text>
<text text-anchor="start" x="506.5" y="-830.4" font-family="Times,serif" font-size="14.00">address :string</text>
<text text-anchor="start" x="506.5" y="-814.4" font-family="Times,serif" font-size="14.00">employees_number :integer</text>
<text text-anchor="start" x="506.5" y="-798.4" font-family="Times,serif" font-size="14.00">capital :decimal</text>
<text text-anchor="start" x="506.5" y="-782.4" font-family="Times,serif" font-size="14.00">created_at :datetime</text>
<text text-anchor="start" x="506.5" y="-766.4" font-family="Times,serif" font-size="14.00">updated_at :datetime</text>
</g>
<!-- Team -->
<g id="node11" class="node"><title>Team</title>
<polyline fill="none" stroke="black" points="423.5,-575 532.5,-575 "/>
<path fill="none" stroke="black" d="M532.5,-575C538.5,-575 544.5,-581 544.5,-587"/>
<polyline fill="none" stroke="black" points="544.5,-587 544.5,-675 "/>
<path fill="none" stroke="black" d="M544.5,-675C544.5,-681 538.5,-687 532.5,-687"/>
<polyline fill="none" stroke="black" points="532.5,-687 423.5,-687 "/>
<path fill="none" stroke="black" d="M423.5,-687C417.5,-687 411.5,-681 411.5,-675"/>
<polyline fill="none" stroke="black" points="411.5,-675 411.5,-587 "/>
<path fill="none" stroke="black" d="M411.5,-587C411.5,-581 417.5,-575 423.5,-575"/>
<text text-anchor="middle" x="478" y="-670.4" font-family="Times,serif" font-size="14.00">Team</text>
<polyline fill="none" stroke="black" points="411.5,-663 544.5,-663 "/>
<text text-anchor="start" x="419.5" y="-646.4" font-family="Times,serif" font-size="14.00">name :string</text>
<text text-anchor="start" x="419.5" y="-630.4" font-family="Times,serif" font-size="14.00">email :string</text>
<text text-anchor="start" x="419.5" y="-614.4" font-family="Times,serif" font-size="14.00">role :integer</text>
<text text-anchor="start" x="419.5" y="-598.4" font-family="Times,serif" font-size="14.00">created_at :datetime</text>
<text text-anchor="start" x="419.5" y="-582.4" font-family="Times,serif" font-size="14.00">updated_at :datetime</text>
</g>
<!-- Company&#45;&gt;Team -->
<g id="edge4" class="edge"><title>Company&#45;&gt;Team</title>
<path fill="none" stroke="black" d="M534.078,-749.505C525.482,-731.339 516.777,-712.943 508.872,-696.239"/>
<polygon fill="black" stroke="black" points="534.154,-749.665 534.364,-760.629 536.293,-754.184 538.431,-758.704 538.431,-758.704 538.431,-758.704 536.293,-754.184 542.499,-756.779 534.154,-749.665 534.154,-749.665"/>
<polygon fill="black" stroke="black" points="508.846,-696.184 508.636,-685.22 506.707,-691.665 504.569,-687.145 504.569,-687.145 504.569,-687.145 506.707,-691.665 500.501,-689.07 508.846,-696.184 508.846,-696.184"/>
</g>
<!-- Worker -->
<g id="node13" class="node"><title>Worker</title>
<polyline fill="none" stroke="black" points="937.5,-287 1046.5,-287 "/>
<path fill="none" stroke="black" d="M1046.5,-287C1052.5,-287 1058.5,-293 1058.5,-299"/>
<polyline fill="none" stroke="black" points="1058.5,-299 1058.5,-339 "/>
<path fill="none" stroke="black" d="M1058.5,-339C1058.5,-345 1052.5,-351 1046.5,-351"/>
<polyline fill="none" stroke="black" points="1046.5,-351 937.5,-351 "/>
<path fill="none" stroke="black" d="M937.5,-351C931.5,-351 925.5,-345 925.5,-339"/>
<polyline fill="none" stroke="black" points="925.5,-339 925.5,-299 "/>
<path fill="none" stroke="black" d="M925.5,-299C925.5,-293 931.5,-287 937.5,-287"/>
<text text-anchor="middle" x="992" y="-334.4" font-family="Times,serif" font-size="14.00">Worker</text>
<polyline fill="none" stroke="black" points="925.5,-327 1058.5,-327 "/>
<text text-anchor="start" x="933.5" y="-310.4" font-family="Times,serif" font-size="14.00">created_at :datetime</text>
<text text-anchor="start" x="933.5" y="-294.4" font-family="Times,serif" font-size="14.00">updated_at :datetime</text>
</g>
<!-- Company&#45;&gt;Worker -->
<g id="edge2" class="edge"><title>Company&#45;&gt;Worker</title>
<path fill="none" stroke="black" d="M675.728,-776.222C748.793,-709.622 849.653,-608.581 917,-504 946.196,-458.662 967.608,-400.095 979.912,-361.128"/>
<ellipse fill="none" stroke="black" cx="672.594" cy="-779.068" rx="4.00002" ry="4.00002"/>
<polygon fill="black" stroke="black" points="980.036,-360.728 987.291,-352.505 981.514,-355.951 982.992,-351.175 982.992,-351.175 982.992,-351.175 981.514,-355.951 978.693,-349.845 980.036,-360.728 980.036,-360.728"/>
</g>
<!-- Event -->
<g id="node5" class="node"><title>Event</title>
<polyline fill="none" stroke="black" points="423.5,-255 532.5,-255 "/>
<path fill="none" stroke="black" d="M532.5,-255C538.5,-255 544.5,-261 544.5,-267"/>
<polyline fill="none" stroke="black" points="544.5,-267 544.5,-371 "/>
<path fill="none" stroke="black" d="M544.5,-371C544.5,-377 538.5,-383 532.5,-383"/>
<polyline fill="none" stroke="black" points="532.5,-383 423.5,-383 "/>
<path fill="none" stroke="black" d="M423.5,-383C417.5,-383 411.5,-377 411.5,-371"/>
<polyline fill="none" stroke="black" points="411.5,-371 411.5,-267 "/>
<path fill="none" stroke="black" d="M411.5,-267C411.5,-261 417.5,-255 423.5,-255"/>
<text text-anchor="middle" x="478" y="-366.4" font-family="Times,serif" font-size="14.00">Event</text>
<polyline fill="none" stroke="black" points="411.5,-359 544.5,-359 "/>
<text text-anchor="start" x="419.5" y="-342.4" font-family="Times,serif" font-size="14.00">name :string</text>
<text text-anchor="start" x="419.5" y="-326.4" font-family="Times,serif" font-size="14.00">description :text</text>
<text text-anchor="start" x="419.5" y="-310.4" font-family="Times,serif" font-size="14.00">start_at :datetime</text>
<text text-anchor="start" x="419.5" y="-294.4" font-family="Times,serif" font-size="14.00">end_at :datetime</text>
<text text-anchor="start" x="419.5" y="-278.4" font-family="Times,serif" font-size="14.00">created_at :datetime</text>
<text text-anchor="start" x="419.5" y="-262.4" font-family="Times,serif" font-size="14.00">updated_at :datetime</text>
</g>
<!-- Member -->
<g id="node6" class="node"><title>Member</title>
<polyline fill="none" stroke="black" points="378.5,-9 487.5,-9 "/>
<path fill="none" stroke="black" d="M487.5,-9C493.5,-9 499.5,-15 499.5,-21"/>
<polyline fill="none" stroke="black" points="499.5,-21 499.5,-61 "/>
<path fill="none" stroke="black" d="M499.5,-61C499.5,-67 493.5,-73 487.5,-73"/>
<polyline fill="none" stroke="black" points="487.5,-73 378.5,-73 "/>
<path fill="none" stroke="black" d="M378.5,-73C372.5,-73 366.5,-67 366.5,-61"/>
<polyline fill="none" stroke="black" points="366.5,-61 366.5,-21 "/>
<path fill="none" stroke="black" d="M366.5,-21C366.5,-15 372.5,-9 378.5,-9"/>
<text text-anchor="middle" x="433" y="-56.4" font-family="Times,serif" font-size="14.00">Member</text>
<polyline fill="none" stroke="black" points="366.5,-49 499.5,-49 "/>
<text text-anchor="start" x="374.5" y="-32.4" font-family="Times,serif" font-size="14.00">created_at :datetime</text>
<text text-anchor="start" x="374.5" y="-16.4" font-family="Times,serif" font-size="14.00">updated_at :datetime</text>
</g>
<!-- Post -->
<g id="node7" class="node"><title>Post</title>
<polyline fill="none" stroke="black" points="576.5,-1 685.5,-1 "/>
<path fill="none" stroke="black" d="M685.5,-1C691.5,-1 697.5,-7 697.5,-13"/>
<polyline fill="none" stroke="black" points="697.5,-13 697.5,-69 "/>
<path fill="none" stroke="black" d="M697.5,-69C697.5,-75 691.5,-81 685.5,-81"/>
<polyline fill="none" stroke="black" points="685.5,-81 576.5,-81 "/>
<path fill="none" stroke="black" d="M576.5,-81C570.5,-81 564.5,-75 564.5,-69"/>
<polyline fill="none" stroke="black" points="564.5,-69 564.5,-13 "/>
<path fill="none" stroke="black" d="M564.5,-13C564.5,-7 570.5,-1 576.5,-1"/>
<text text-anchor="middle" x="631" y="-64.4" font-family="Times,serif" font-size="14.00">Post</text>
<polyline fill="none" stroke="black" points="564.5,-57 697.5,-57 "/>
<text text-anchor="start" x="572.5" y="-40.4" font-family="Times,serif" font-size="14.00">content :string</text>
<text text-anchor="start" x="572.5" y="-24.4" font-family="Times,serif" font-size="14.00">created_at :datetime</text>
<text text-anchor="start" x="572.5" y="-8.4" font-family="Times,serif" font-size="14.00">updated_at :datetime</text>
</g>
<!-- Project -->
<g id="node8" class="node"><title>Project</title>
<polyline fill="none" stroke="black" points="235.5,-759 344.5,-759 "/>
<path fill="none" stroke="black" d="M344.5,-759C350.5,-759 356.5,-765 356.5,-771"/>
<polyline fill="none" stroke="black" points="356.5,-771 356.5,-939 "/>
<path fill="none" stroke="black" d="M356.5,-939C356.5,-945 350.5,-951 344.5,-951"/>
<polyline fill="none" stroke="black" points="344.5,-951 235.5,-951 "/>
<path fill="none" stroke="black" d="M235.5,-951C229.5,-951 223.5,-945 223.5,-939"/>
<polyline fill="none" stroke="black" points="223.5,-939 223.5,-771 "/>
<path fill="none" stroke="black" d="M223.5,-771C223.5,-765 229.5,-759 235.5,-759"/>
<text text-anchor="middle" x="290" y="-934.4" font-family="Times,serif" font-size="14.00">Project</text>
<polyline fill="none" stroke="black" points="223.5,-927 356.5,-927 "/>
<text text-anchor="start" x="231.5" y="-910.4" font-family="Times,serif" font-size="14.00">name :string</text>
<text text-anchor="start" x="231.5" y="-894.4" font-family="Times,serif" font-size="14.00">address :string</text>
<text text-anchor="start" x="231.5" y="-878.4" font-family="Times,serif" font-size="14.00">description :text</text>
<text text-anchor="start" x="231.5" y="-862.4" font-family="Times,serif" font-size="14.00">budget :decimal</text>
<text text-anchor="start" x="231.5" y="-846.4" font-family="Times,serif" font-size="14.00">side_notes :text</text>
<text text-anchor="start" x="231.5" y="-830.4" font-family="Times,serif" font-size="14.00">finished :boolean</text>
<text text-anchor="start" x="231.5" y="-814.4" font-family="Times,serif" font-size="14.00">start_date :datetime</text>
<text text-anchor="start" x="231.5" y="-798.4" font-family="Times,serif" font-size="14.00">due :datetime</text>
<text text-anchor="start" x="231.5" y="-782.4" font-family="Times,serif" font-size="14.00">created_at :datetime</text>
<text text-anchor="start" x="231.5" y="-766.4" font-family="Times,serif" font-size="14.00">updated_at :datetime</text>
</g>
<!-- Project&#45;&gt;Assignment -->
<g id="edge8" class="edge"><title>Project&#45;&gt;Assignment</title>
<path fill="none" stroke="black" d="M290,-750.644C290,-639.259 290,-466.771 290,-377.297"/>
<ellipse fill="none" stroke="black" cx="290" cy="-754.865" rx="4" ry="4"/>
<polygon fill="black" stroke="black" points="290,-377.069 294.5,-367.069 290,-372.069 290,-367.069 290,-367.069 290,-367.069 290,-372.069 285.5,-367.069 290,-377.069 290,-377.069"/>
</g>
<!-- Task -->
<g id="node10" class="node"><title>Task</title>
<polyline fill="none" stroke="black" points="113.5,-543 222.5,-543 "/>
<path fill="none" stroke="black" d="M222.5,-543C228.5,-543 234.5,-549 234.5,-555"/>
<polyline fill="none" stroke="black" points="234.5,-555 234.5,-707 "/>
<path fill="none" stroke="black" d="M234.5,-707C234.5,-713 228.5,-719 222.5,-719"/>
<polyline fill="none" stroke="black" points="222.5,-719 113.5,-719 "/>
<path fill="none" stroke="black" d="M113.5,-719C107.5,-719 101.5,-713 101.5,-707"/>
<polyline fill="none" stroke="black" points="101.5,-707 101.5,-555 "/>
<path fill="none" stroke="black" d="M101.5,-555C101.5,-549 107.5,-543 113.5,-543"/>
<text text-anchor="middle" x="168" y="-702.4" font-family="Times,serif" font-size="14.00">Task</text>
<polyline fill="none" stroke="black" points="101.5,-695 234.5,-695 "/>
<text text-anchor="start" x="109.5" y="-678.4" font-family="Times,serif" font-size="14.00">name :string</text>
<text text-anchor="start" x="109.5" y="-662.4" font-family="Times,serif" font-size="14.00">description :text</text>
<text text-anchor="start" x="109.5" y="-646.4" font-family="Times,serif" font-size="14.00">priority :integer</text>
<text text-anchor="start" x="109.5" y="-630.4" font-family="Times,serif" font-size="14.00">progress :decimal</text>
<text text-anchor="start" x="109.5" y="-614.4" font-family="Times,serif" font-size="14.00">start_date :datetime</text>
<text text-anchor="start" x="109.5" y="-598.4" font-family="Times,serif" font-size="14.00">due :datetime</text>
<text text-anchor="start" x="109.5" y="-582.4" font-family="Times,serif" font-size="14.00">finished :boolean</text>
<text text-anchor="start" x="109.5" y="-566.4" font-family="Times,serif" font-size="14.00">created_at :datetime</text>
<text text-anchor="start" x="109.5" y="-550.4" font-family="Times,serif" font-size="14.00">updated_at :datetime</text>
</g>
<!-- Project&#45;&gt;Task -->
<g id="edge6" class="edge"><title>Project&#45;&gt;Task</title>
<path fill="none" stroke="black" d="M233.675,-751.584C229.376,-743.691 225.046,-735.74 220.771,-727.89"/>
<ellipse fill="none" stroke="black" cx="235.64" cy="-755.191" rx="4.00002" ry="4.00002"/>
<polygon fill="black" stroke="black" points="220.754,-727.861 219.923,-716.926 218.363,-723.47 215.971,-719.079 215.971,-719.079 215.971,-719.079 218.363,-723.47 212.02,-721.231 220.754,-727.861 220.754,-727.861"/>
</g>
<!-- Project&#45;&gt;Team -->
<g id="edge10" class="edge"><title>Project&#45;&gt;Team</title>
<path fill="none" stroke="black" d="M363.212,-767.769C383.514,-743.579 405.177,-717.768 424.152,-695.159"/>
<polygon fill="black" stroke="black" points="362.975,-768.051 353.099,-772.818 359.761,-771.881 356.546,-775.711 356.546,-775.711 356.546,-775.711 359.761,-771.881 359.993,-778.604 362.975,-768.051 362.975,-768.051"/>
<polygon fill="black" stroke="black" points="424.317,-694.963 434.192,-690.196 427.531,-691.133 430.745,-687.303 430.745,-687.303 430.745,-687.303 427.531,-691.133 427.299,-684.41 424.317,-694.963 424.317,-694.963"/>
</g>
<!-- Relationship -->
<g id="node9" class="node"><title>Relationship</title>
<polyline fill="none" stroke="black" points="736.5,-9 845.5,-9 "/>
<path fill="none" stroke="black" d="M845.5,-9C851.5,-9 857.5,-15 857.5,-21"/>
<polyline fill="none" stroke="black" points="857.5,-21 857.5,-61 "/>
<path fill="none" stroke="black" d="M857.5,-61C857.5,-67 851.5,-73 845.5,-73"/>
<polyline fill="none" stroke="black" points="845.5,-73 736.5,-73 "/>
<path fill="none" stroke="black" d="M736.5,-73C730.5,-73 724.5,-67 724.5,-61"/>
<polyline fill="none" stroke="black" points="724.5,-61 724.5,-21 "/>
<path fill="none" stroke="black" d="M724.5,-21C724.5,-15 730.5,-9 736.5,-9"/>
<text text-anchor="middle" x="791" y="-56.4" font-family="Times,serif" font-size="14.00">Relationship</text>
<polyline fill="none" stroke="black" points="724.5,-49 857.5,-49 "/>
<text text-anchor="start" x="732.5" y="-32.4" font-family="Times,serif" font-size="14.00">created_at :datetime</text>
<text text-anchor="start" x="732.5" y="-16.4" font-family="Times,serif" font-size="14.00">updated_at :datetime</text>
</g>
<!-- Task&#45;&gt;Comment -->
<g id="edge12" class="edge"><title>Task&#45;&gt;Comment</title>
<path fill="none" stroke="black" d="M159.361,-534.742C154.738,-483.227 149.196,-421.473 145.228,-377.26"/>
<ellipse fill="none" stroke="black" cx="159.731" cy="-538.86" rx="4" ry="4"/>
<polygon fill="black" stroke="black" points="145.225,-377.221 148.813,-366.859 144.778,-372.241 144.331,-367.261 144.331,-367.261 144.331,-367.261 144.778,-372.241 139.849,-367.663 145.225,-377.221 145.225,-377.221"/>
</g>
<!-- Team&#45;&gt;Assignment -->
<g id="edge20" class="edge"><title>Team&#45;&gt;Assignment</title>
<path fill="none" stroke="black" d="M406.85,-569.104C393.447,-555.191 380.395,-539.83 370,-524 340.039,-478.375 318.603,-419.826 305.508,-376.988"/>
<ellipse fill="none" stroke="black" cx="409.808" cy="-572.119" rx="4.00002" ry="4.00002"/>
<polygon fill="black" stroke="black" points="305.469,-376.857 306.91,-365.986 304.034,-372.067 302.599,-367.277 302.599,-367.277 302.599,-367.277 304.034,-372.067 298.289,-368.568 305.469,-376.857 305.469,-376.857"/>
</g>
<!-- Team&#45;&gt;Event -->
<g id="edge14" class="edge"><title>Team&#45;&gt;Event</title>
<path fill="none" stroke="black" d="M478,-566.767C478,-516.378 478,-446.168 478,-393.348"/>
<ellipse fill="none" stroke="black" cx="478" cy="-570.86" rx="4" ry="4"/>
<polygon fill="black" stroke="black" points="478,-393.027 482.5,-383.027 478,-388.027 478,-383.027 478,-383.027 478,-383.027 478,-388.027 473.5,-383.027 478,-393.027 478,-393.027"/>
</g>
<!-- Team&#45;&gt;Member -->
<g id="edge16" class="edge"><title>Team&#45;&gt;Member</title>
<path fill="none" stroke="black" d="M431.76,-567.774C420.026,-548.283 409.041,-526.109 403,-504 359.657,-345.37 377.447,-296.447 403,-134 405.707,-116.791 411.069,-98.4237 416.521,-82.5969"/>
<ellipse fill="none" stroke="black" cx="434.01" cy="-571.424" rx="4.00002" ry="4.00002"/>
<polygon fill="black" stroke="black" points="416.547,-82.5234 424.143,-74.6144 418.226,-77.8136 419.904,-73.1037 419.904,-73.1037 419.904,-73.1037 418.226,-77.8136 415.666,-71.5931 416.547,-82.5234 416.547,-82.5234"/>
</g>
<!-- User -->
<g id="node12" class="node"><title>User</title>
<polyline fill="none" stroke="black" points="573.5,-135 754.5,-135 "/>
<path fill="none" stroke="black" d="M754.5,-135C760.5,-135 766.5,-141 766.5,-147"/>
<polyline fill="none" stroke="black" points="766.5,-147 766.5,-491 "/>
<path fill="none" stroke="black" d="M766.5,-491C766.5,-497 760.5,-503 754.5,-503"/>
<polyline fill="none" stroke="black" points="754.5,-503 573.5,-503 "/>
<path fill="none" stroke="black" d="M573.5,-503C567.5,-503 561.5,-497 561.5,-491"/>
<polyline fill="none" stroke="black" points="561.5,-491 561.5,-147 "/>
<path fill="none" stroke="black" d="M561.5,-147C561.5,-141 567.5,-135 573.5,-135"/>
<text text-anchor="middle" x="664" y="-486.4" font-family="Times,serif" font-size="14.00">User</text>
<polyline fill="none" stroke="black" points="561.5,-479 766.5,-479 "/>
<text text-anchor="start" x="569.5" y="-462.4" font-family="Times,serif" font-size="14.00">email :string</text>
<text text-anchor="start" x="569.5" y="-446.4" font-family="Times,serif" font-size="14.00">encrypted_password :string</text>
<text text-anchor="start" x="569.5" y="-430.4" font-family="Times,serif" font-size="14.00">reset_password_token :string</text>
<text text-anchor="start" x="569.5" y="-414.4" font-family="Times,serif" font-size="14.00">reset_password_sent_at :datetime</text>
<text text-anchor="start" x="569.5" y="-398.4" font-family="Times,serif" font-size="14.00">remember_created_at :datetime</text>
<text text-anchor="start" x="569.5" y="-382.4" font-family="Times,serif" font-size="14.00">current_sign_in_at :datetime</text>
<text text-anchor="start" x="569.5" y="-366.4" font-family="Times,serif" font-size="14.00">last_sign_in_at :datetime</text>
<text text-anchor="start" x="569.5" y="-350.4" font-family="Times,serif" font-size="14.00">current_sign_in_ip :string</text>
<text text-anchor="start" x="569.5" y="-334.4" font-family="Times,serif" font-size="14.00">last_sign_in_ip :string</text>
<text text-anchor="start" x="569.5" y="-318.4" font-family="Times,serif" font-size="14.00">authentication_token :string</text>
<text text-anchor="start" x="569.5" y="-302.4" font-family="Times,serif" font-size="14.00">created_at :datetime</text>
<text text-anchor="start" x="569.5" y="-286.4" font-family="Times,serif" font-size="14.00">updated_at :datetime</text>
<text text-anchor="start" x="569.5" y="-270.4" font-family="Times,serif" font-size="14.00">address :string</text>
<text text-anchor="start" x="569.5" y="-254.4" font-family="Times,serif" font-size="14.00">role :integer</text>
<text text-anchor="start" x="569.5" y="-238.4" font-family="Times,serif" font-size="14.00">username :string</text>
<text text-anchor="start" x="569.5" y="-222.4" font-family="Times,serif" font-size="14.00">mobile_number :string</text>
<text text-anchor="start" x="569.5" y="-206.4" font-family="Times,serif" font-size="14.00">spoken_language :integer</text>
<text text-anchor="start" x="569.5" y="-190.4" font-family="Times,serif" font-size="14.00">country :integer</text>
<text text-anchor="start" x="569.5" y="-174.4" font-family="Times,serif" font-size="14.00">admin :boolean</text>
<text text-anchor="start" x="569.5" y="-158.4" font-family="Times,serif" font-size="14.00">name :text</text>
<text text-anchor="start" x="569.5" y="-142.4" font-family="Times,serif" font-size="14.00">image :string</text>
</g>
<!-- Team&#45;&gt;User -->
<g id="edge18" class="edge"><title>Team&#45;&gt;User</title>
<path fill="none" stroke="black" d="M516.635,-566.193C528.471,-546.339 542.117,-523.449 556.229,-499.778"/>
<polygon fill="black" stroke="black" points="516.589,-566.271 507.603,-572.556 514.028,-570.566 511.468,-574.86 511.468,-574.86 511.468,-574.86 514.028,-570.566 515.333,-577.165 516.589,-566.271 516.589,-566.271"/>
<polygon fill="black" stroke="black" points="556.326,-499.615 565.312,-493.33 558.886,-495.32 561.446,-491.025 561.446,-491.025 561.446,-491.025 558.886,-495.32 557.581,-488.721 556.326,-499.615 556.326,-499.615"/>
</g>
<!-- Team&#45;&gt;Worker -->
<g id="edge22" class="edge"><title>Team&#45;&gt;Worker</title>
<path fill="none" stroke="black" d="M545.646,-569.761C570.19,-551.069 599.241,-532.655 629,-522 689.372,-500.384 864.961,-541.469 917,-504 962.957,-470.911 980.802,-404.692 987.699,-361.117"/>
<ellipse fill="none" stroke="black" cx="542.338" cy="-572.323" rx="4.00002" ry="4.00002"/>
<polygon fill="black" stroke="black" points="987.716,-360.998 993.609,-351.75 988.436,-356.05 989.156,-351.102 989.156,-351.102 989.156,-351.102 988.436,-356.05 984.702,-350.454 987.716,-360.998 987.716,-360.998"/>
</g>
<!-- User&#45;&gt;Member -->
<g id="edge24" class="edge"><title>User&#45;&gt;Member</title>
<path fill="none" stroke="black" d="M556.203,-137.659C555.14,-136.428 554.072,-135.208 553,-134 534.927,-113.64 511.903,-94.5697 490.866,-79.063"/>
<ellipse fill="none" stroke="black" cx="558.896" cy="-140.846" rx="4.00002" ry="4.00002"/>
<polygon fill="black" stroke="black" points="490.707,-78.9483 485.249,-69.4373 486.658,-76.0149 482.609,-73.0815 482.609,-73.0815 482.609,-73.0815 486.658,-76.0149 479.969,-76.7257 490.707,-78.9483 490.707,-78.9483"/>
</g>
<!-- User&#45;&gt;Post -->
<g id="edge26" class="edge"><title>User&#45;&gt;Post</title>
<path fill="none" stroke="black" d="M641.139,-126.413C639.647,-113.847 638.238,-101.972 636.97,-91.2953"/>
<ellipse fill="none" stroke="black" cx="641.655" cy="-130.758" rx="4.00001" ry="4.00001"/>
<polygon fill="black" stroke="black" points="636.932,-90.9678 640.221,-80.5071 636.342,-86.0027 635.753,-81.0376 635.753,-81.0376 635.753,-81.0376 636.342,-86.0027 631.284,-81.568 636.932,-90.9678 636.932,-90.9678"/>
</g>
<!-- User&#45;&gt;Relationship -->
<g id="edge28" class="edge"><title>User&#45;&gt;Relationship</title>
<path fill="none" stroke="black" d="M770.151,-159.534C776.733,-145.203 782.503,-130.587 787,-116 790.173,-105.707 791.715,-94.2483 792.348,-83.4474"/>
<ellipse fill="none" stroke="black" cx="768.34" cy="-163.382" rx="4.00002" ry="4.00002"/>
<polygon fill="black" stroke="black" points="792.351,-83.347 797.197,-73.5099 792.525,-78.35 792.7,-73.353 792.7,-73.353 792.7,-73.353 792.525,-78.35 788.202,-73.1962 792.351,-83.347 792.351,-83.347"/>
</g>
<!-- User&#45;&gt;Relationship -->
<g id="edge32" class="edge"><title>User&#45;&gt;Relationship</title>
<path fill="none" stroke="black" d="M647.266,-127.23C650.728,-117.663 655.239,-108.509 661,-100 673.076,-82.1629 686.288,-90.6844 706,-82 709.425,-80.4911 712.916,-78.925 716.433,-77.3239"/>
<ellipse fill="none" stroke="black" cx="645.963" cy="-131.187" rx="4.00001" ry="4.00001"/>
<polygon fill="black" stroke="black" points="716.696,-77.203 727.661,-77.1068 721.237,-75.1113 725.778,-73.0195 725.778,-73.0195 725.778,-73.0195 721.237,-75.1113 723.896,-68.9322 716.696,-77.203 716.696,-77.203"/>
<text text-anchor="middle" x="722" y="-103.4" font-family="Times,serif" font-size="14.00">inverted_relationships</text>
</g>
<!-- User&#45;&gt;User -->
<g id="edge30" class="edge"><title>User&#45;&gt;User</title>
<path fill="none" stroke="black" d="M776.183,-330.759C781.121,-327.757 784,-323.837 784,-319 784,-314.163 781.121,-310.243 776.183,-307.241"/>
<polygon fill="black" stroke="black" points="776.05,-330.815 765.087,-330.579 771.447,-332.768 766.845,-334.721 766.845,-334.721 766.845,-334.721 771.447,-332.768 768.602,-338.864 776.05,-330.815 776.05,-330.815"/>
<polygon fill="black" stroke="black" points="776.05,-307.185 768.602,-299.136 771.447,-305.232 766.845,-303.279 766.845,-303.279 766.845,-303.279 771.447,-305.232 765.087,-307.421 776.05,-307.185 776.05,-307.185"/>
<text text-anchor="middle" x="810.5" y="-314.4" font-family="Times,serif" font-size="14.00">following</text>
</g>
<!-- User&#45;&gt;User -->
<g id="edge34" class="edge"><title>User&#45;&gt;User</title>
<path fill="none" stroke="black" d="M776.925,-356.988C810.286,-355.053 837,-342.39 837,-319 837,-295.61 810.286,-282.947 776.925,-281.012"/>
<polygon fill="black" stroke="black" points="776.867,-356.99 766.754,-352.749 771.868,-357.119 766.87,-357.248 766.87,-357.248 766.87,-357.248 771.868,-357.119 766.986,-361.746 776.867,-356.99 776.867,-356.99"/>
<polygon fill="black" stroke="black" points="776.867,-281.01 766.986,-276.254 771.868,-280.881 766.87,-280.752 766.87,-280.752 766.87,-280.752 771.868,-280.881 766.754,-285.251 776.867,-281.01 776.867,-281.01"/>
<text text-anchor="middle" x="863.5" y="-314.4" font-family="Times,serif" font-size="14.00">followers</text>
</g>
</g>
</svg>
